HIERARCHY
ROOT Pelvis
{
	OFFSET 0.000000 0.000000 0.000000
	CHANNELS 6 Xposition Yposition Zposition Xrotation Yrotation Zrotation
	JOINT LeftUpLeg_virtual
	{
		OFFSET 0.000000 0.000000 0.000000
		CHANNELS 3 Xrotation Yrotation Zrotation
		JOINT LeftUpLeg
		{
			OFFSET 18.735201 -5.666702 -4.541200
			CHANNELS 3 Xrotation Yrotation Zrotation
			JOINT LeftLeg
			{
				OFFSET -0.021200 -31.938179 0.493100
				CHANNELS 3 Xrotation Yrotation Zrotation
				JOINT LeftFoot
				{
					OFFSET 0.021200 -31.938179 -4.336299
					CHANNELS 3 Xrotation Yrotation Zrotation
					JOINT LeftToeBase
					{
						OFFSET 0.943001 -26.722000 15.023500
						CHANNELS 3 Xrotation Yrotation Zrotation
						End Site
						{
							OFFSET 0 0 0
						}
					}
				}
			}
		}
	}
	JOINT RightUpLeg_virtual
	{
		OFFSET 0.000000 0.000000 0.000000
		CHANNELS 3 Xrotation Yrotation Zrotation
		JOINT RightUpLeg
		{
			OFFSET -18.735201 -5.666702 -4.541200
			CHANNELS 3 Xrotation Yrotation Zrotation
			JOINT RightLeg
			{
				OFFSET 0.018946 -31.938133 0.493100
				CHANNELS 3 Xrotation Yrotation Zrotation
				JOINT RightFoot
				{
					OFFSET -0.018946 -31.938126 -4.336299
					CHANNELS 3 Xrotation Yrotation Zrotation
					JOINT RightToeBase
					{
						OFFSET -0.943001 -26.722004 15.023500
						CHANNELS 3 Xrotation Yrotation Zrotation
						End Site
						{
							OFFSET 0 0 0
						}
					}
				}
			}
		}
	}
	JOINT Hips_virtual
	{
		OFFSET 0.000000 0.000000 0.000000
		CHANNELS 3 Xrotation Yrotation Zrotation
		JOINT Hips
		{
			OFFSET -0.000000 -0.000000 -0.000000
			CHANNELS 3 Xrotation Yrotation Zrotation
			JOINT Spine
			{
				OFFSET 0.000000 10.199997 -0.299500
				CHANNELS 3 Xrotation Yrotation Zrotation
				JOINT Spine1
				{
					OFFSET 0.000000 11.900002 -1.516600
					CHANNELS 3 Xrotation Yrotation Zrotation
					JOINT Spine2
					{
						OFFSET 0.000000 13.600006 -2.842500
						CHANNELS 3 Xrotation Yrotation Zrotation
						JOINT Neck_virtual
						{
							OFFSET 0.000000 0.000000 0.000000
							CHANNELS 3 Xrotation Yrotation Zrotation
							JOINT Neck
							{
								OFFSET 0.000000 9.624100 -2.890100
								CHANNELS 3 Xrotation Yrotation Zrotation
								JOINT Head
								{
									OFFSET 0.000000 14.068802 -1.351900
									CHANNELS 3 Xrotation Yrotation Zrotation
									End Site
									{
										OFFSET 0 0 0
									}
								}
							}
						}
						JOINT LeftShoulder_virtual
						{
							OFFSET 0.000000 0.000000 0.000000
							CHANNELS 3 Xrotation Yrotation Zrotation
							JOINT LeftShoulder
							{
								OFFSET 15.263000 10.923401 -0.547700
								CHANNELS 3 Xrotation Yrotation Zrotation
								JOINT LeftArm
								{
									OFFSET 25.438599 -2.830597 -13.032500
									CHANNELS 3 Xrotation Yrotation Zrotation
									JOINT LeftForeArm
									{
										OFFSET 29.960503 0.000000 0.000000
										CHANNELS 3 Xrotation Yrotation Zrotation
										JOINT LeftHand
										{
											OFFSET 27.849251 0.000000 0.000000
											CHANNELS 3 Xrotation Yrotation Zrotation
											End Site
											{
												OFFSET 0 0 0
											}
										}
									}
								}
							}
						}
						JOINT RightShoulder_virtual
						{
							OFFSET 0.000000 0.000000 0.000000
							CHANNELS 3 Xrotation Yrotation Zrotation
							JOINT RightShoulder
							{
								OFFSET -15.263000 10.923401 -0.547700
								CHANNELS 3 Xrotation Yrotation Zrotation
								JOINT RightArm
								{
									OFFSET -25.438599 -2.830597 -13.032500
									CHANNELS 3 Xrotation Yrotation Zrotation
									JOINT RightForeArm
									{
										OFFSET -29.960503 0.000000 0.000000
										CHANNELS 3 Xrotation Yrotation Zrotation
										JOINT RightHand
										{
											OFFSET -27.849251 0.000000 0.000000
											CHANNELS 3 Xrotation Yrotation Zrotation
											End Site
											{
												OFFSET 0 0 0
											}
										}
									}
								}
							}
						}
					}
				}
			}
		}
	}
}
MOTION
Frames: 13
Frame Time: 0.03333333
0.255105 55.875397 10.496229 0.000000 0.000000 0.000000 0.145596 0.090245 0.913894 -100.887529 -11.094619 12.487972 84.223493 3.940379 -0.119795 18.525457 -7.657486 -7.640717 0.000000 0.000000 0.000000 0.145596 0.090245 0.913894 -102.688520 12.056288 -8.145138 85.278402 -3.465727 -1.479887 19.295252 0.869983 9.054456 0.000000 0.000000 0.000000 0.145596 0.090245 0.913894 0.000000 0.000000 0.000000 10.430443 0.098795 -1.540589 -0.199273 0.216427 -0.355483 0.000000 0.000000 0.000000 -0.199596 0.248527 -0.300892 -0.401935 -0.509651 0.190450 0.000000 0.000000 0.000000 -0.199596 0.248527 -0.300892 0.823522 -15.262022 -7.868746 4.746748 -21.216412 -54.862217 0.000053 -62.197547 0.000066 0.000000 0.000000 0.000000 -0.199596 0.248527 -0.300892 3.171098 -4.378724 8.782891 -3.950255 37.253416 63.733663 -0.000012 55.137938 0.000001 0.000000 0.000000 0.000000 
0.249987 55.847946 10.543392 0.000000 0.000000 0.000000 0.222027 0.105277 0.916543 -101.101007 -11.050136 12.372277 84.312156 4.007862 -0.090408 18.612494 -7.606611 -7.405540 0.000000 0.000000 0.000000 0.222027 0.105277 0.916543 -102.913909 12.065517 -8.021565 85.499324 -3.538052 -1.524212 19.300880 0.810039 8.917947 0.000000 0.000000 0.000000 0.222027 0.105277 0.916543 0.000000 0.000000 0.000000 10.467076 0.092371 -1.542628 -0.063334 0.215446 -0.380943 0.000000 0.000000 0.000000 -0.135200 0.251406 -0.311500 -0.328841 -0.509797 0.172034 0.000000 0.000000 0.000000 -0.135200 0.251406 -0.311500 1.153614 -14.769746 -6.772559 2.903377 -20.762699 -57.237726 0.000021 -61.769649 0.000032 0.000000 0.000000 0.000000 -0.135200 0.251406 -0.311500 3.187853 -4.727848 8.245239 -4.932289 37.148385 65.022103 0.000014 54.880112 0.000000 0.000000 0.000000 0.000000 
0.241941 55.820503 10.598591 0.000000 0.000000 0.000000 0.270524 0.120046 0.920887 -101.306739 -11.066792 12.299502 84.311350 4.029614 -0.036223 18.941498 -7.526745 -7.399302 0.000000 0.000000 0.000000 0.270524 0.120046 0.920887 -103.153342 12.075710 -7.871011 85.656125 -3.564686 -1.614555 19.554473 0.716244 8.863501 0.000000 0.000000 0.000000 0.270524 0.120046 0.920887 0.000000 0.000000 0.000000 10.538139 0.083012 -1.545725 0.117322 0.217353 -0.407600 0.000000 0.000000 0.000000 -0.022415 0.256674 -0.330249 -0.243874 -0.509384 0.152254 0.000000 0.000000 0.000000 -0.022415 0.256674 -0.330249 1.483756 -14.226184 -5.573874 1.069128 -20.426972 -59.574180 0.000014 -61.355070 0.000008 0.000000 0.000000 0.000000 -0.022415 0.256674 -0.330249 3.198768 -5.102190 7.675742 -5.994475 37.040157 66.362357 0.000024 54.665726 -0.000019 0.000000 0.000000 0.000000 
0.232170 55.793419 10.658644 0.000000 0.000000 0.000000 0.303250 0.134965 0.926262 -101.574414 -11.100843 12.207978 84.432449 4.071398 0.040134 19.146489 -7.409985 -7.442395 0.000000 0.000000 0.000000 0.303250 0.134965 0.926262 -103.410150 12.067068 -7.686609 85.777709 -3.576309 -1.739807 19.949307 0.588756 8.817516 0.000000 0.000000 0.000000 0.303250 0.134965 0.926262 0.000000 0.000000 0.000000 10.629209 0.072188 -1.549371 0.315336 0.220705 -0.432224 0.000000 0.000000 0.000000 0.118235 0.263075 -0.353244 -0.151260 -0.508305 0.131599 0.000000 0.000000 0.000000 0.118235 0.263075 -0.353244 1.802074 -13.648143 -4.308315 -0.710285 -20.139149 -61.883420 -0.000022 -60.953701 -0.000029 0.000000 0.000000 0.000000 0.118235 0.263075 -0.353244 3.202631 -5.492630 7.084808 -7.091203 36.919703 67.729290 0.000013 54.479358 -0.000006 0.000000 0.000000 0.000000 
0.221941 55.767021 10.719349 0.000000 0.000000 0.000000 0.321778 0.149419 0.932109 -101.858468 -11.136079 12.097463 84.565651 4.121925 0.142332 19.368629 -7.260606 -7.520987 0.000000 0.000000 0.000000 0.321778 0.149419 0.932109 -103.667635 12.033865 -7.469803 85.861768 -3.564147 -1.905844 20.436223 0.412862 8.796505 0.000000 0.000000 0.000000 0.321778 0.149419 0.932109 0.000000 0.000000 0.000000 10.755193 0.061631 -1.553099 0.561807 0.226205 -0.458109 0.000000 0.000000 0.000000 0.311176 0.271968 -0.384474 -0.050448 -0.506798 0.110149 0.000000 0.000000 0.000000 0.311176 0.271968 -0.384474 2.105336 -13.032949 -2.969769 -2.448522 -19.928781 -64.159409 -0.000025 -60.572850 -0.000042 0.000000 0.000000 0.000000 0.311176 0.271968 -0.384474 3.198646 -5.900650 6.470102 -8.231923 36.790548 69.124226 -0.000009 54.322001 0.000005 0.000000 0.000000 0.000000 
0.212540 55.741959 10.777111 0.000000 0.000000 0.000000 0.331358 0.163136 0.937798 -102.149618 -11.168538 11.969142 84.704632 4.171124 0.269117 19.589261 -7.080812 -7.635884 0.000000 0.000000 0.000000 0.331358 0.163136 0.937798 -103.911868 11.974168 -7.224437 85.906527 -3.526433 -2.113373 20.965737 0.181970 8.812710 0.000000 0.000000 0.000000 0.331358 0.163136 0.937798 0.000000 0.000000 0.000000 10.911780 0.053148 -1.556501 0.851041 0.233871 -0.485168 0.000000 0.000000 0.000000 0.550187 0.283418 -0.422933 0.058087 -0.504701 0.088081 0.000000 0.000000 0.000000 0.550187 0.283418 -0.422933 2.388185 -12.383525 -1.564307 -4.149423 -19.802754 -66.396952 -0.000001 -60.219340 -0.000017 0.000000 0.000000 0.000000 0.550187 0.283418 -0.422933 3.185929 -6.324733 5.832567 -9.414670 36.655610 70.541565 -0.000021 54.188897 0.000024 0.000000 0.000000 0.000000 
0.205199 55.719841 10.829075 0.000000 0.000000 0.000000 0.339596 0.175918 0.942738 -102.438965 -11.194642 11.828494 84.843319 4.212484 0.414574 19.788687 -6.878444 -7.782104 0.000000 0.000000 0.000000 0.339596 0.175918 0.942738 -104.129027 11.892195 -6.955433 85.911465 -3.472953 -2.358104 21.484888 -0.099092 8.874893 0.000000 0.000000 0.000000 0.339596 0.175918 0.942738 0.000000 0.000000 0.000000 11.068862 0.045739 -1.559393 1.150179 0.241931 -0.514970 0.000000 0.000000 0.000000 0.790866 0.295513 -0.461894 0.172913 -0.502573 0.065937 0.000000 0.000000 0.000000 0.790866 0.295513 -0.461894 2.644605 -11.707453 -0.109113 -5.808109 -19.746092 -68.588992 0.000009 -59.897303 0.000022 0.000000 0.000000 0.000000 0.790866 0.295513 -0.461894 3.163798 -6.760639 5.176094 -10.632071 36.518546 71.973146 0.000004 54.067064 -0.000001 0.000000 0.000000 0.000000 
0.201239 55.703323 10.872732 0.000000 0.000000 0.000000 0.354609 0.187450 0.946467 -102.716551 -11.210058 11.684797 84.975510 4.241432 0.569152 19.945809 -6.664768 -7.949086 0.000000 0.000000 0.000000 0.354609 0.187450 0.946467 -104.304693 11.798459 -6.666248 85.876952 -3.428705 -2.631934 21.938332 -0.413235 8.987380 0.000000 0.000000 0.000000 0.354609 0.187450 0.946467 0.000000 0.000000 0.000000 11.244508 0.041656 -1.561358 1.474852 0.251132 -0.545358 0.000000 0.000000 0.000000 1.059349 0.308801 -0.505269 0.292006 -0.500267 0.044312 0.000000 0.000000 0.000000 1.059349 0.308801 -0.505269 2.869531 -11.014711 1.371042 -7.416328 -19.727384 -70.724990 -0.000011 -59.608707 -0.000030 0.000000 0.000000 0.000000 1.059349 0.308801 -0.505269 3.131917 -7.202021 4.506920 -11.877446 36.382690 73.411392 0.000012 53.939691 -0.000016 0.000000 0.000000 0.000000 
0.202221 55.695351 10.905151 0.000000 0.000000 0.000000 0.382783 0.197312 0.948586 -102.970491 -11.209327 11.550383 85.095353 4.252655 0.721321 20.039336 -6.451542 -8.122603 0.000000 0.000000 0.000000 0.382783 0.197312 0.948586 -104.422288 11.708440 -6.358154 85.801820 -3.431040 -2.924767 22.271355 -0.734026 9.151181 0.000000 0.000000 0.000000 0.382783 0.197312 0.948586 0.000000 0.000000 0.000000 11.434915 0.042117 -1.562197 1.819991 0.261522 -0.576246 0.000000 0.000000 0.000000 1.350171 0.323237 -0.552269 0.413308 -0.498171 0.024007 0.000000 0.000000 0.000000 1.350171 0.323237 -0.552269 3.059795 -10.315391 2.847923 -8.967097 -19.707579 -72.794141 0.000001 -59.348333 -0.000010 0.000000 0.000000 0.000000 1.350171 0.323237 -0.552269 3.090343 -7.641476 3.832549 -13.143295 36.248282 74.849953 0.000022 53.791046 -0.000023 0.000000 0.000000 0.000000 
0.209930 55.698135 10.921694 0.000000 0.000000 0.000000 0.427566 0.204780 0.948842 -103.188203 -11.184922 11.437791 85.195948 4.238759 0.860016 20.049966 -6.248076 -8.286513 0.000000 0.000000 0.000000 0.427566 0.204780 0.948842 -104.464567 11.638366 -6.031040 85.682046 -3.520323 -3.226442 22.433488 -1.033297 9.363842 0.000000 0.000000 0.000000 0.427566 0.204780 0.948842 0.000000 0.000000 0.000000 11.635792 0.048251 -1.561796 2.179614 0.273189 -0.607530 0.000000 0.000000 0.000000 1.656924 0.338768 -0.601991 0.534378 -0.496184 0.005803 0.000000 0.000000 0.000000 1.656924 0.338768 -0.601991 3.214433 -9.618529 4.293244 -10.454355 -19.646272 -74.786262 0.000001 -59.106551 -0.000001 0.000000 0.000000 0.000000 1.656924 0.338768 -0.601991 3.039600 -8.071825 3.160503 -14.422940 36.111347 76.285864 0.000018 53.610821 -0.000028 0.000000 0.000000 0.000000 
0.225941 55.711815 10.915897 0.000000 0.000000 0.000000 0.490038 0.208849 0.947184 -103.357715 -11.128973 11.358238 85.270049 4.187290 0.976518 19.960903 -6.059038 -8.427110 0.000000 0.000000 0.000000 0.490038 0.208849 0.947184 -104.424201 11.596725 -5.680821 85.484742 -3.669543 -3.527951 22.427553 -1.291258 9.609042 0.000000 0.000000 0.000000 0.490038 0.208849 0.947184 0.000000 0.000000 0.000000 11.842429 0.061141 -1.560077 2.547185 0.286203 -0.639090 0.000000 0.000000 0.000000 1.972552 0.355291 -0.653411 0.652790 -0.494487 -0.009584 0.000000 0.000000 0.000000 1.972552 0.355291 -0.653411 3.334359 -8.932674 5.680482 -11.868961 -19.507966 -76.691235 0.000038 -58.875869 0.000033 0.000000 0.000000 0.000000 1.972552 0.355291 -0.653411 2.980579 -8.486972 2.497494 -15.704372 35.962770 77.715258 -0.000006 53.401448 0.000006 0.000000 0.000000 0.000000 
0.249632 55.730316 10.883720 0.000000 0.000000 0.000000 0.571729 0.210590 0.945110 -103.475208 -11.042124 11.320755 85.329704 4.044798 1.065633 19.723887 -5.881925 -8.549221 0.000000 0.000000 0.000000 0.571729 0.210590 0.945110 -104.325047 11.586852 -5.307804 85.198455 -3.850071 -3.822363 22.313050 -1.503444 9.872476 0.000000 0.000000 0.000000 0.571729 0.210590 0.945110 0.000000 0.000000 0.000000 12.050051 0.079551 -1.557955 2.916175 0.300500 -0.670853 0.000000 0.000000 0.000000 2.289951 0.372552 -0.705488 0.765249 -0.492998 -0.021644 0.000000 0.000000 0.000000 2.289951 0.372552 -0.705488 3.422012 -8.268113 6.985140 -13.191148 -19.267760 -78.494815 -0.000015 -58.662876 -0.000009 0.000000 0.000000 0.000000 2.289951 0.372552 -0.705488 2.914389 -8.882236 1.849117 -16.961627 35.789822 79.125979 -0.000013 53.185863 0.000008 0.000000 0.000000 0.000000 
0.278234 55.740799 10.825377 0.000000 0.000000 0.000000 0.679400 0.212118 0.944524 -103.554745 -10.925119 11.325614 85.383293 3.788306 1.126224 19.336067 -5.711635 -8.656110 0.000000 0.000000 0.000000 0.679400 0.212118 0.944524 -104.225900 11.608601 -4.923544 84.890352 -4.061896 -4.105690 22.084667 -1.697719 10.150319 0.000000 0.000000 0.000000 0.679400 0.212118 0.944524 0.000000 0.000000 0.000000 12.255017 0.100628 -1.556006 3.280980 0.313707 -0.702276 0.000000 0.000000 0.000000 2.602937 0.388013 -0.756591 0.868055 -0.491960 -0.030166 0.000000 0.000000 0.000000 2.602937 0.388013 -0.756591 3.481068 -7.641893 8.182009 -14.371748 -18.912799 -80.164851 0.000003 -58.517420 0.000003 0.000000 0.000000 0.000000 2.602937 0.388013 -0.756591 2.842312 -9.254246 1.219922 -18.145036 35.580054 80.488151 0.000002 53.022287 -0.000013 0.000000 0.000000 0.000000 
